<svg xmlns="http://www.w3.org/2000/svg" width="28" height="32.002" viewBox="0 0 28 32.002"><path d="M2.577,32h0L-.01,32l0-.014a75.6,75.6,0,0,1-.529-9.2,50.643,50.643,0,0,1,.616-8.021A21.456,21.456,0,0,1,2.418,7.572C6.615.361,16.392,0,18.309,0c.2,0,.3,0,.305,0,3.378,0,5.812.748,7.235,2.222a5.966,5.966,0,0,1,1.608,4.266,10.428,10.428,0,0,1-.178,1.867l-.625,3.466A11.229,11.229,0,0,1,24.8,16.487a5,5,0,0,1-1.615,1.192c-.794.439-1.479.818-1.3,1.429.3,1.047,3.9,12.4,4.057,12.886h-3.1a1.307,1.307,0,0,0,.661-1.115v-.12a1.029,1.029,0,0,0-.059-.334,1.458,1.458,0,0,0-1.417-1H3.382a1.457,1.457,0,0,0-1.417,1,1,1,0,0,0-.052.334v.12A1.307,1.307,0,0,0,2.574,32Zm19.468-3.576a2.621,2.621,0,0,1,.666.086c-.283-4.166-3.808-7.568-8.384-8.087a8.894,8.894,0,0,0-1.137-.074h-.973a8.875,8.875,0,0,0-1.137.074c-4.574.519-8.1,3.92-8.385,8.087a2.637,2.637,0,0,1,.667-.086H22.044ZM12.275,19.6h.856a11.854,11.854,0,0,1,1.3.073A1.671,1.671,0,0,0,12.7,18.248a1.669,1.669,0,0,0-1.727,1.426A11.861,11.861,0,0,1,12.275,19.6ZM15.8,6.933c-.034,0-3.4.26-4.511,2.171s-.011,5.525,0,5.561h3.126a4.41,4.41,0,0,0,3.394-1.133,4.311,4.311,0,0,0,1.028-3C18.837,8.144,17.815,6.933,15.8,6.933Z" transform="translate(0.543 0.004)" fill="#5C87FF"/></svg>